<mxfile host="Electron" modified="2024-10-22T22:51:21.149Z" agent="Mozilla/5.0 (Windows NT 10.0; Win64; x64) AppleWebKit/537.36 (KHTML, like Gecko) draw.io/24.2.5 Chrome/120.0.6099.109 Electron/28.1.0 Safari/537.36" etag="fLjxmlVN2zXddobzL4Yj" version="24.2.5" type="device">
  <diagram name="Page-1" id="6vHKNsii3n6gi4zs4AND">
    <mxGraphModel dx="1194" dy="705" grid="1" gridSize="10" guides="1" tooltips="1" connect="1" arrows="1" fold="1" page="1" pageScale="1" pageWidth="850" pageHeight="1100" math="0" shadow="0">
      <root>
        <mxCell id="0" />
        <mxCell id="1" parent="0" />
        <mxCell id="sioU_4QOwZU8j6ryAE0i-6" value="" style="edgeStyle=orthogonalEdgeStyle;rounded=0;orthogonalLoop=1;jettySize=auto;html=1;" parent="1" source="sioU_4QOwZU8j6ryAE0i-3" target="sioU_4QOwZU8j6ryAE0i-4" edge="1">
          <mxGeometry relative="1" as="geometry" />
        </mxCell>
        <mxCell id="sioU_4QOwZU8j6ryAE0i-3" value="Calibrate" style="shape=process;whiteSpace=wrap;html=1;backgroundOutline=1;" parent="1" vertex="1">
          <mxGeometry y="80" width="120" height="40" as="geometry" />
        </mxCell>
        <mxCell id="sioU_4QOwZU8j6ryAE0i-7" value="" style="edgeStyle=orthogonalEdgeStyle;rounded=0;orthogonalLoop=1;jettySize=auto;html=1;" parent="1" source="sioU_4QOwZU8j6ryAE0i-4" target="sioU_4QOwZU8j6ryAE0i-5" edge="1">
          <mxGeometry relative="1" as="geometry" />
        </mxCell>
        <mxCell id="sioU_4QOwZU8j6ryAE0i-4" value="GetBasePos" style="shape=process;whiteSpace=wrap;html=1;backgroundOutline=1;" parent="1" vertex="1">
          <mxGeometry y="160" width="120" height="40" as="geometry" />
        </mxCell>
        <mxCell id="sioU_4QOwZU8j6ryAE0i-5" value="VisualServoing" style="shape=process;whiteSpace=wrap;html=1;backgroundOutline=1;" parent="1" vertex="1">
          <mxGeometry y="240" width="120" height="40" as="geometry" />
        </mxCell>
        <mxCell id="sioU_4QOwZU8j6ryAE0i-22" style="edgeStyle=orthogonalEdgeStyle;rounded=0;orthogonalLoop=1;jettySize=auto;html=1;exitX=0.5;exitY=1;exitDx=0;exitDy=0;entryX=0.5;entryY=0;entryDx=0;entryDy=0;" parent="1" source="sioU_4QOwZU8j6ryAE0i-8" target="sioU_4QOwZU8j6ryAE0i-11" edge="1">
          <mxGeometry relative="1" as="geometry" />
        </mxCell>
        <mxCell id="sioU_4QOwZU8j6ryAE0i-8" value="Calibrate" style="ellipse;whiteSpace=wrap;html=1;" parent="1" vertex="1">
          <mxGeometry x="190" y="80" width="130" height="40" as="geometry" />
        </mxCell>
        <mxCell id="sioU_4QOwZU8j6ryAE0i-16" value="" style="edgeStyle=orthogonalEdgeStyle;rounded=0;orthogonalLoop=1;jettySize=auto;html=1;" parent="1" source="sioU_4QOwZU8j6ryAE0i-9" target="sioU_4QOwZU8j6ryAE0i-10" edge="1">
          <mxGeometry relative="1" as="geometry" />
        </mxCell>
        <mxCell id="sioU_4QOwZU8j6ryAE0i-9" value="MoveRobot" style="rounded=0;whiteSpace=wrap;html=1;" parent="1" vertex="1">
          <mxGeometry x="200" y="320" width="120" height="40" as="geometry" />
        </mxCell>
        <mxCell id="sioU_4QOwZU8j6ryAE0i-14" style="edgeStyle=orthogonalEdgeStyle;rounded=0;orthogonalLoop=1;jettySize=auto;html=1;exitX=1;exitY=1;exitDx=0;exitDy=0;entryX=0.5;entryY=0;entryDx=0;entryDy=0;" parent="1" source="sioU_4QOwZU8j6ryAE0i-10" target="sioU_4QOwZU8j6ryAE0i-11" edge="1">
          <mxGeometry relative="1" as="geometry">
            <Array as="points">
              <mxPoint x="320" y="420" />
              <mxPoint x="360" y="420" />
              <mxPoint x="360" y="170" />
              <mxPoint x="255" y="170" />
            </Array>
          </mxGeometry>
        </mxCell>
        <mxCell id="sioU_4QOwZU8j6ryAE0i-10" value="Photo" style="rounded=0;whiteSpace=wrap;html=1;strokeColor=#F0021A;" parent="1" vertex="1">
          <mxGeometry x="200" y="400" width="120" height="40" as="geometry" />
        </mxCell>
        <mxCell id="sioU_4QOwZU8j6ryAE0i-17" style="edgeStyle=orthogonalEdgeStyle;rounded=0;orthogonalLoop=1;jettySize=auto;html=1;exitX=1;exitY=0.5;exitDx=0;exitDy=0;entryX=0.5;entryY=0;entryDx=0;entryDy=0;" parent="1" source="sioU_4QOwZU8j6ryAE0i-11" target="sioU_4QOwZU8j6ryAE0i-9" edge="1">
          <mxGeometry relative="1" as="geometry" />
        </mxCell>
        <mxCell id="sioU_4QOwZU8j6ryAE0i-18" value="FALSE" style="edgeLabel;html=1;align=center;verticalAlign=middle;resizable=0;points=[];" parent="sioU_4QOwZU8j6ryAE0i-17" vertex="1" connectable="0">
          <mxGeometry x="-0.3538" y="1" relative="1" as="geometry">
            <mxPoint as="offset" />
          </mxGeometry>
        </mxCell>
        <mxCell id="sioU_4QOwZU8j6ryAE0i-23" style="edgeStyle=orthogonalEdgeStyle;rounded=0;orthogonalLoop=1;jettySize=auto;html=1;exitX=0;exitY=0.5;exitDx=0;exitDy=0;entryX=0.5;entryY=0;entryDx=0;entryDy=0;" parent="1" source="sioU_4QOwZU8j6ryAE0i-11" target="sioU_4QOwZU8j6ryAE0i-20" edge="1">
          <mxGeometry relative="1" as="geometry">
            <Array as="points">
              <mxPoint x="160" y="230" />
              <mxPoint x="160" y="460" />
              <mxPoint x="260" y="460" />
            </Array>
          </mxGeometry>
        </mxCell>
        <mxCell id="sioU_4QOwZU8j6ryAE0i-25" value="TRUE" style="edgeLabel;html=1;align=center;verticalAlign=middle;resizable=0;points=[];" parent="sioU_4QOwZU8j6ryAE0i-23" vertex="1" connectable="0">
          <mxGeometry x="-0.6247" y="3" relative="1" as="geometry">
            <mxPoint y="19" as="offset" />
          </mxGeometry>
        </mxCell>
        <mxCell id="sioU_4QOwZU8j6ryAE0i-11" value="photo=20" style="rhombus;whiteSpace=wrap;html=1;" parent="1" vertex="1">
          <mxGeometry x="215" y="190" width="80" height="80" as="geometry" />
        </mxCell>
        <mxCell id="sioU_4QOwZU8j6ryAE0i-27" value="" style="edgeStyle=orthogonalEdgeStyle;rounded=0;orthogonalLoop=1;jettySize=auto;html=1;" parent="1" source="sioU_4QOwZU8j6ryAE0i-20" target="sioU_4QOwZU8j6ryAE0i-26" edge="1">
          <mxGeometry relative="1" as="geometry" />
        </mxCell>
        <mxCell id="sioU_4QOwZU8j6ryAE0i-20" value="Calibrate" style="rounded=0;whiteSpace=wrap;html=1;strokeColor=#F00707;" parent="1" vertex="1">
          <mxGeometry x="200" y="480" width="120" height="40" as="geometry" />
        </mxCell>
        <mxCell id="sioU_4QOwZU8j6ryAE0i-26" value="END Calibrate" style="ellipse;whiteSpace=wrap;html=1;" parent="1" vertex="1">
          <mxGeometry x="195" y="550" width="130" height="40" as="geometry" />
        </mxCell>
        <mxCell id="sioU_4QOwZU8j6ryAE0i-30" value="" style="edgeStyle=orthogonalEdgeStyle;rounded=0;orthogonalLoop=1;jettySize=auto;html=1;" parent="1" source="sioU_4QOwZU8j6ryAE0i-28" target="sioU_4QOwZU8j6ryAE0i-29" edge="1">
          <mxGeometry relative="1" as="geometry" />
        </mxCell>
        <mxCell id="sioU_4QOwZU8j6ryAE0i-28" value="GetBasePos" style="ellipse;whiteSpace=wrap;html=1;" parent="1" vertex="1">
          <mxGeometry x="400" y="80" width="120" height="40" as="geometry" />
        </mxCell>
        <mxCell id="sioU_4QOwZU8j6ryAE0i-33" value="" style="edgeStyle=orthogonalEdgeStyle;rounded=0;orthogonalLoop=1;jettySize=auto;html=1;" parent="1" source="sioU_4QOwZU8j6ryAE0i-29" target="sioU_4QOwZU8j6ryAE0i-31" edge="1">
          <mxGeometry relative="1" as="geometry" />
        </mxCell>
        <mxCell id="sioU_4QOwZU8j6ryAE0i-29" value="MoveRobot" style="rounded=0;whiteSpace=wrap;html=1;" parent="1" vertex="1">
          <mxGeometry x="400" y="160" width="120" height="40" as="geometry" />
        </mxCell>
        <mxCell id="sioU_4QOwZU8j6ryAE0i-34" value="" style="edgeStyle=orthogonalEdgeStyle;rounded=0;orthogonalLoop=1;jettySize=auto;html=1;" parent="1" source="sioU_4QOwZU8j6ryAE0i-31" target="sioU_4QOwZU8j6ryAE0i-32" edge="1">
          <mxGeometry relative="1" as="geometry" />
        </mxCell>
        <mxCell id="sioU_4QOwZU8j6ryAE0i-31" value="Photo" style="rounded=0;whiteSpace=wrap;html=1;strokeColor=#F00000;" parent="1" vertex="1">
          <mxGeometry x="400" y="240" width="120" height="40" as="geometry" />
        </mxCell>
        <mxCell id="sioU_4QOwZU8j6ryAE0i-36" value="" style="edgeStyle=orthogonalEdgeStyle;rounded=0;orthogonalLoop=1;jettySize=auto;html=1;" parent="1" source="sioU_4QOwZU8j6ryAE0i-32" target="sioU_4QOwZU8j6ryAE0i-35" edge="1">
          <mxGeometry relative="1" as="geometry" />
        </mxCell>
        <mxCell id="sioU_4QOwZU8j6ryAE0i-32" value="SURF" style="rounded=0;whiteSpace=wrap;html=1;" parent="1" vertex="1">
          <mxGeometry x="400" y="320" width="120" height="40" as="geometry" />
        </mxCell>
        <mxCell id="sioU_4QOwZU8j6ryAE0i-35" value="END GetBasePos" style="ellipse;whiteSpace=wrap;html=1;" parent="1" vertex="1">
          <mxGeometry x="400" y="400" width="120" height="40" as="geometry" />
        </mxCell>
        <mxCell id="sioU_4QOwZU8j6ryAE0i-43" value="" style="edgeStyle=orthogonalEdgeStyle;rounded=0;orthogonalLoop=1;jettySize=auto;html=1;" parent="1" source="sioU_4QOwZU8j6ryAE0i-37" target="sioU_4QOwZU8j6ryAE0i-38" edge="1">
          <mxGeometry relative="1" as="geometry" />
        </mxCell>
        <mxCell id="sioU_4QOwZU8j6ryAE0i-37" value="VisualServoing" style="ellipse;whiteSpace=wrap;html=1;" parent="1" vertex="1">
          <mxGeometry x="560" y="80" width="120" height="40" as="geometry" />
        </mxCell>
        <mxCell id="sioU_4QOwZU8j6ryAE0i-44" value="" style="edgeStyle=orthogonalEdgeStyle;rounded=0;orthogonalLoop=1;jettySize=auto;html=1;" parent="1" source="sioU_4QOwZU8j6ryAE0i-38" target="sioU_4QOwZU8j6ryAE0i-39" edge="1">
          <mxGeometry relative="1" as="geometry" />
        </mxCell>
        <mxCell id="sioU_4QOwZU8j6ryAE0i-38" value="Photo" style="rounded=0;whiteSpace=wrap;html=1;strokeColor=#F00E25;" parent="1" vertex="1">
          <mxGeometry x="560" y="160" width="120" height="40" as="geometry" />
        </mxCell>
        <mxCell id="sioU_4QOwZU8j6ryAE0i-45" value="" style="edgeStyle=orthogonalEdgeStyle;rounded=0;orthogonalLoop=1;jettySize=auto;html=1;" parent="1" source="sioU_4QOwZU8j6ryAE0i-39" target="sioU_4QOwZU8j6ryAE0i-42" edge="1">
          <mxGeometry relative="1" as="geometry" />
        </mxCell>
        <mxCell id="sioU_4QOwZU8j6ryAE0i-39" value="SURF" style="rounded=0;whiteSpace=wrap;html=1;" parent="1" vertex="1">
          <mxGeometry x="560" y="240" width="120" height="40" as="geometry" />
        </mxCell>
        <mxCell id="sioU_4QOwZU8j6ryAE0i-41" style="edgeStyle=orthogonalEdgeStyle;rounded=0;orthogonalLoop=1;jettySize=auto;html=1;exitX=0.5;exitY=1;exitDx=0;exitDy=0;entryX=1;entryY=1;entryDx=0;entryDy=0;" parent="1" source="sioU_4QOwZU8j6ryAE0i-5" target="sioU_4QOwZU8j6ryAE0i-5" edge="1">
          <mxGeometry relative="1" as="geometry" />
        </mxCell>
        <mxCell id="sioU_4QOwZU8j6ryAE0i-47" value="" style="edgeStyle=orthogonalEdgeStyle;rounded=0;orthogonalLoop=1;jettySize=auto;html=1;" parent="1" source="sioU_4QOwZU8j6ryAE0i-42" target="sioU_4QOwZU8j6ryAE0i-46" edge="1">
          <mxGeometry relative="1" as="geometry" />
        </mxCell>
        <mxCell id="sioU_4QOwZU8j6ryAE0i-42" value="CalcCameraVel" style="rounded=0;whiteSpace=wrap;html=1;" parent="1" vertex="1">
          <mxGeometry x="560" y="320" width="120" height="40" as="geometry" />
        </mxCell>
        <mxCell id="sioU_4QOwZU8j6ryAE0i-50" value="" style="edgeStyle=orthogonalEdgeStyle;rounded=0;orthogonalLoop=1;jettySize=auto;html=1;" parent="1" source="sioU_4QOwZU8j6ryAE0i-46" target="sioU_4QOwZU8j6ryAE0i-49" edge="1">
          <mxGeometry relative="1" as="geometry" />
        </mxCell>
        <mxCell id="sioU_4QOwZU8j6ryAE0i-46" value="ConvertToTr" style="rounded=0;whiteSpace=wrap;html=1;" parent="1" vertex="1">
          <mxGeometry x="560" y="400" width="120" height="40" as="geometry" />
        </mxCell>
        <mxCell id="sioU_4QOwZU8j6ryAE0i-51" style="edgeStyle=orthogonalEdgeStyle;rounded=0;orthogonalLoop=1;jettySize=auto;html=1;exitX=0.5;exitY=1;exitDx=0;exitDy=0;entryX=1;entryY=0.5;entryDx=0;entryDy=0;" parent="1" source="sioU_4QOwZU8j6ryAE0i-49" target="sioU_4QOwZU8j6ryAE0i-38" edge="1">
          <mxGeometry relative="1" as="geometry">
            <Array as="points">
              <mxPoint x="620" y="540" />
              <mxPoint x="700" y="540" />
              <mxPoint x="700" y="180" />
            </Array>
          </mxGeometry>
        </mxCell>
        <mxCell id="sioU_4QOwZU8j6ryAE0i-49" value="MoveRobot" style="rounded=0;whiteSpace=wrap;html=1;" parent="1" vertex="1">
          <mxGeometry x="560" y="480" width="120" height="40" as="geometry" />
        </mxCell>
      </root>
    </mxGraphModel>
  </diagram>
</mxfile>
